<svg xmlns="http://www.w3.org/2000/svg" id="Layer_1" viewBox="0 0 841.89 595.28">
  <defs>
    
  </defs>
  <g transform="matrix(1, 0, 0, 1, -20.580288, 12.335923)">
    <g>
      <g>
        <path d="M448.12,267.65s19.07,77.21-31.07,77.21h-.75c-50.15,0-31.07-77.21-31.07-77.21" fill="rgb(232, 36, 53)"/>
        <path d="M417.05,349.65h-.75c-12.56,0-22.35-4.38-29.11-13.02-17.98-22.97-7.08-68.21-6.61-70.12.63-2.57,3.23-4.13,5.79-3.5,2.57.63,4.13,3.23,3.5,5.79-.03.11-2.68,11-3.29,24.24-.55,11.76.42,27.84,8.15,37.7,4.92,6.28,11.98,9.34,21.57,9.34h.75c9.59,0,16.65-3.05,21.57-9.34,7.73-9.86,8.7-25.94,8.15-37.7-.62-13.24-3.27-24.13-3.29-24.24-.63-2.57.94-5.16,3.5-5.79,2.56-.63,5.16.93,5.79,3.5.47,1.91,11.38,47.16-6.61,70.12-6.76,8.64-16.56,13.02-29.12,13.02Z"/>
      </g>
      <path d="M414.76,310.35c-2.09,0-3.78-1.69-3.78-3.78v-26.15c0-2.09,1.69-3.78,3.78-3.78s3.78,1.69,3.78,3.78v26.15c0,2.09-1.69,3.78-3.78,3.78Z" fill="rgb(35, 31, 32)"/>
    </g>
    <g>
      <path d="M312.04,99.94l23.57-1.45c-2.12-7.92-9.15-13.06-17.46-13.6-14.66-.96-29.32,2.33-41.63,10.15-7.77,4.94-14.18,14.3-9.16,19.92,13.86-8.7,28.52-14.03,44.67-15.02ZM566.43,114.6c2.68-7.19-1.21-11.97-5.9-16.66-13.91-10.13-32.14-14.78-49.56-12.59-7.27.91-12.98,6.22-13.99,13.21l23.78,1.32c16.18.9,31.02,6.17,45.68,14.72ZM471.93,269.99c17.74,1.29,31.21,12.44,41.21,26.1l31.12,42.52c8.37,11.44,19.49,19.86,33.34,23.03,19.42,4.43,38.19-4.77,45.83-23.02,8.09-19.31,5.26-45.46,1.1-66.89-6.17-31.86-14.25-62.6-24.12-93.45-3.4-10.62-7.32-20.23-12.16-30.07-7.53-15.33-19.76-26.8-35.65-33.35-13.42-5.54-27.49-8.52-42.13-9.2l-26.8-1.26h-132.84s-27.76,1.27-27.76,1.27c-23.28,1.06-48.9,7.74-65.36,24.33-7.78,7.85-13.28,17.22-17.35,27.67-10.3,26.48-17.55,53.14-24.53,80.76-7.35,29.05-16.13,68.82-7.5,96.13,5.22,16.52,18.58,27.68,36.19,28.12,12.24.31,24.41-4.18,32.7-13.07l13.44-14.4,29.71-40.99c11.18-15.42,27.5-25.01,46.73-25.01l93.66-.02,11.15.81Z" fill="rgb(196, 0, 179)"/>
      <path d="M587.23,374.71c-4.04,0-8.16-.46-12.3-1.4-15.8-3.61-29.75-13.16-40.34-27.63l-31.12-42.53c-9.68-13.23-20.59-20.37-32.42-21.23h0l-10.72-.78-93.23.02c-14.51,0-27.67,7.13-37.04,20.07l-30.14,41.59-13.95,14.94c-10.39,11.13-25.59,17.28-41.75,16.87-22.24-.56-40.36-14.54-47.3-36.48-9.13-28.9-1.43-68.12,7.31-102.68,6.28-24.82,13.9-53.69,24.98-82.16,4.99-12.83,11.54-23.22,20-31.76,1.75-1.77,3.58-3.43,5.46-4.98-1-2.87-1.31-5.99-.86-9.19,1.36-9.78,9.3-18.02,16.28-22.46,14.17-9.01,31.06-13.16,48.83-12,12.73.83,23.17,8.45,27.35,19.68l4.55-.2h133.12s2.17.1,2.17.1c3.24-10.08,12.31-17.67,23.35-19.06,20.47-2.57,41.65,2.82,58.1,14.79l.76.55.67.67c4.04,4.05,13.24,13.27,9.38,27.05,8.55,7.14,15.53,16.03,20.62,26.4,5.24,10.67,9.31,20.74,12.81,31.7,10.4,32.54,18.41,63.55,24.47,94.82,6.28,32.39,5.7,55.84-1.81,73.79-8.21,19.61-26.67,31.47-47.24,31.47ZM472.79,258.05c19.16,1.39,35.98,11.81,50,30.97l31.12,42.52c7.24,9.89,16.1,16.09,26.35,18.43,13.89,3.17,26.8-3.25,32.13-15.98,5.53-13.21,5.66-32.83.39-59.99-5.88-30.33-13.65-60.45-23.76-92.08-3.14-9.81-6.79-18.85-11.5-28.44-6.29-12.82-16.21-22.09-29.47-27.56-11.85-4.89-24.67-7.68-38.12-8.31l-26.52-1.25h-132.29s-27.49,1.26-27.49,1.26c-33.51,1.53-50.35,13.69-57.41,20.8-6.11,6.16-10.92,13.87-14.69,23.58-10.59,27.2-17.98,55.22-24.09,79.35-7.92,31.29-15.02,66.41-7.69,89.59,3.87,12.26,13.01,19.46,25.08,19.76,9.32.25,17.93-3.15,23.66-9.27l12.94-13.86,29.27-40.39c14-19.31,34.03-29.95,56.42-29.96l94.1-.02,11.59.84h0Z"/>
    </g>
    <path d="M471.93,269.99l-11.15-.81-93.66.02c-19.23,0-35.56,9.59-46.73,25.01l-29.71,40.99-13.44,14.4c-8.3,8.89-20.46,13.38-32.7,13.07-17.61-.44-30.97-11.6-36.19-28.12-8.63-27.32.15-67.08,7.5-96.13,6.98-27.61,14.23-54.28,24.53-80.76,4.07-10.45,9.57-19.82,17.35-27.67,16.46-16.59,42.08-23.27,65.36-24.33l27.76-1.27h132.84s26.8,1.25,26.8,1.25c14.64.69,28.71,3.67,42.13,9.2,15.89,6.55,28.12,18.02,35.65,33.35,4.83,9.84,8.76,19.45,12.16,30.07,9.87,30.86,17.94,61.6,24.12,93.45,4.15,21.44,6.98,47.58-1.1,66.89-7.64,18.25-26.41,27.46-45.83,23.02-13.85-3.16-24.97-11.59-33.34-23.03l-31.12-42.52c-10-13.66-23.47-24.81-41.21-26.1Z" fill="rgb(117, 57, 143)"/>
    <g>
      <path d="M312.04,99.94c-16.16.99-30.81,6.32-44.67,15.02-5.02-5.62,1.39-14.98,9.16-19.92,12.31-7.83,26.97-11.11,41.63-10.15,8.31.54,15.34,5.68,17.46,13.6l-23.57,1.45Z" fill="rgb(161, 0, 255)"/>
      <path d="M267.28,115.58l-.27-.3c-1.54-1.73-2.15-3.85-1.81-6.31.66-4.79,5.11-10.55,11.07-14.34,12.1-7.69,26.59-11.23,41.92-10.23,8.75.57,15.77,6.05,17.89,13.96l.15.57-24.16,1.49c-15.4.95-29.94,5.84-44.45,14.95l-.34.21ZM313.11,85.2c-13.26,0-25.73,3.5-36.33,10.24-5.73,3.65-10.01,9.14-10.63,13.66-.28,2.02.16,3.78,1.32,5.23,14.53-9.06,29.11-13.92,44.55-14.87l22.98-1.41c-2.19-7.2-8.74-12.15-16.87-12.69-1.68-.11-3.35-.16-5.01-.16Z" fill="rgb(161, 0, 255)"/>
    </g>
    <g>
      <path d="M566.43,114.6c-14.66-8.55-29.49-13.82-45.68-14.72l-23.78-1.32c1.01-6.99,6.72-12.3,13.99-13.21,17.43-2.19,35.66,2.47,49.56,12.59,4.69,4.69,8.58,9.47,5.9,16.66Z" fill="rgb(252, 102, 0)"/>
      <path d="M566.68,115.3l-.49-.29c-15.48-9.02-30.35-13.82-45.46-14.66l-24.3-1.35.08-.52c1.04-7.19,6.83-12.67,14.41-13.62,17.61-2.21,35.8,2.41,49.91,12.68,4.82,4.82,8.86,9.72,6.06,17.22l-.2.53ZM497.53,98.11l23.25,1.29c15.1.84,29.96,5.58,45.39,14.49,2.2-6.67-1.56-11.2-5.98-15.62-13.85-10.08-31.79-14.64-49.17-12.45-6.96.87-12.32,5.78-13.5,12.29Z" fill="rgb(252, 102, 0)"/>
    </g>
    <g>
      <path d="M322.93,241.19l-11.42-.08c-5.06-.03-8.38-4.31-8.38-9.14v-20.75s-19.86-.27-19.86-.27c-5.2-.07-10.41-2.68-10.37-8.84l.06-10.21c.04-6.72,5.47-9.86,11.29-9.87l19.08-.05.24-22.04c.03-2.84,3.45-7.42,6.5-7.4l15.47.08c3.58.02,6.45,5.15,6.51,8.54l.35,20.82,21.94.2c8.57.08,9.52,10.73,7.95,21.31-.44,2.96-3.85,7.17-7.02,7.21l-22.91.29-.3,20.75c-.07,4.81-3.76,9.46-9.11,9.43Z" fill="rgb(255, 255, 255)"/>
      <path d="M322.98,244.54s-.05,0-.08,0l-11.42-.08c-6.56-.04-11.7-5.53-11.71-12.49v-17.45s-16.55-.23-16.55-.23c-8.22-.11-13.72-5.02-13.68-12.21l.06-10.21c.04-7.75,6.06-13.18,14.64-13.2l15.77-.04.2-18.73c.05-4.24,4.46-10.72,9.83-10.72.01,0,.02,0,.03,0l15.47.08c5.89.03,9.76,7.03,9.84,11.83l.29,17.56,18.67.17c3.33.03,6.16,1.3,8.19,3.67,3.52,4.12,4.54,11.35,3.04,21.48-.67,4.51-5.41,10.01-10.29,10.07l-19.65.25-.25,17.49c-.1,7.04-5.66,12.73-12.4,12.73ZM322.95,237.84h.04c3.47,0,5.66-3.17,5.7-6.12l.34-24.01,26.17-.33c1.1-.01,3.49-2.58,3.75-4.35,1.16-7.79.61-13.67-1.5-16.14-.77-.9-1.75-1.31-3.16-1.32l-25.2-.23-.4-24.09c-.04-2.21-2.05-5.24-3.17-5.25l-15.47-.08c-.94.11-3.11,2.73-3.13,4.09l-.27,25.34-22.39.06c-1.86,0-7.92.49-7.95,6.54l-.06,10.21c-.03,4.98,5.4,5.44,7.07,5.47l23.15.32.02,24.05c0,2.86,1.74,5.77,5.05,5.79l11.42.08Z"/>
    </g>
    <g>
      <g>
        <circle cx="519.61" cy="225.05" r="16.14" fill="rgb(177, 255, 0)"/>
        <path d="M519.61,243.59c-10.22,0-18.54-8.31-18.54-18.53s8.31-18.53,18.54-18.53,18.53,8.31,18.53,18.53-8.31,18.53-18.53,18.53ZM519.61,211.3c-7.58,0-13.75,6.17-13.75,13.75s6.17,13.75,13.75,13.75,13.75-6.17,13.75-13.75-6.17-13.75-13.75-13.75Z"/>
      </g>
      <g>
        <circle cx="519.54" cy="159.37" r="16.07" fill="rgb(252, 224, 0)"/>
        <path d="M519.54,177.84c-10.18,0-18.47-8.28-18.47-18.47s8.28-18.47,18.47-18.47,18.47,8.28,18.47,18.47-8.28,18.47-18.47,18.47ZM519.54,145.69c-7.54,0-13.68,6.14-13.68,13.68s6.14,13.68,13.68,13.68,13.68-6.14,13.68-13.68-6.14-13.68-13.68-13.68Z"/>
      </g>
      <g>
        <circle cx="553.58" cy="191.98" r="16.07" fill="rgb(232, 36, 53)"/>
        <path d="M553.58,210.45c-10.18,0-18.46-8.28-18.46-18.46s8.28-18.46,18.46-18.46,18.46,8.28,18.46,18.46-8.28,18.46-18.46,18.46ZM553.58,178.31c-7.54,0-13.68,6.14-13.68,13.68s6.14,13.68,13.68,13.68,13.68-6.14,13.68-13.68-6.14-13.68-13.68-13.68Z"/>
      </g>
      <g>
        <circle cx="486.57" cy="192.02" r="16.02" fill="rgb(58, 198, 255)"/>
        <path d="M486.57,210.43c-10.15,0-18.41-8.26-18.41-18.42s8.26-18.41,18.41-18.41,18.42,8.26,18.42,18.41-8.26,18.42-18.42,18.42ZM486.57,178.39c-7.51,0-13.63,6.11-13.63,13.63s6.11,13.63,13.63,13.63,13.63-6.11,13.63-13.63-6.11-13.63-13.63-13.63Z"/>
      </g>
    </g>
    <g>
      <ellipse cx="398.05" cy="246.79" rx="7.05" ry="8.52"/>
      <ellipse cx="435.3" cy="246.79" rx="7.05" ry="8.52"/>
    </g>
    <g>
      <path d="M420.89,149.4s-1.68.68-1.94-.7c-.32-1.7-.28-24.46-.28-24.46l-20.93,39.6s-1.02,2,1.27,1.3,11.73-3.6,11.73-3.6l1.29,24.81,21.14-40.5-12.29,3.55Z" fill="rgb(252, 224, 0)"/>
      <path d="M412.04,188.74c-.17,0-.34-.02-.51-.06-1.05-.23-1.82-1.14-1.88-2.21l-1.13-21.75-8.8,2.7c-2.12.65-3.29-.07-3.9-.8-1-1.19-.76-2.78-.2-3.87l20.95-39.64c.51-.97,1.63-1.47,2.69-1.2,1.07.27,1.82,1.23,1.82,2.33-.02,8.91.03,18.78.16,22.57l11.29-3.26c.92-.27,1.91.04,2.52.78.61.74.71,1.77.27,2.62l-21.14,40.5c-.42.8-1.24,1.29-2.12,1.29ZM410.74,159.14c.49,0,.96.15,1.37.43.6.42.98,1.1,1.02,1.84l.84,16.06,14.5-27.77-6.82,1.97c-.58.21-2.02.59-3.35-.14-.89-.49-1.49-1.34-1.69-2.4-.21-1.13-.29-8.41-.31-15.26l-14.79,27.99,8.55-2.62c.23-.07.47-.11.7-.11Z"/>
    </g>
    <g>
      <path d="M154.55,475.6c-.64-.6-.96-1.33-.96-2.18v-5.65c0-.85-.3-1.58-.91-2.18-.6-.6-1.33-.91-2.18-.91h-5.65c-.85,0-1.58-.3-2.18-.91-.6-.6-.91-1.33-.91-2.18v-41.22c0-.78.3-1.49.91-2.13.6-.64,1.33-.96,2.18-.96h5.65c.85,0,1.58-.3,2.18-.91.6-.6.91-1.29.91-2.08v-5.75c0-.78.32-1.49.96-2.13.64-.64,1.35-.96,2.13-.96h53.04c.78,0,1.49.32,2.13.96.64.64.96,1.35.96,2.13v5.75c0,.78-.32,1.47-.96,2.08-.64.6-1.35.91-2.13.91h-41.22c-.78,0-1.49.32-2.13.96-.64.64-.96,1.35-.96,2.13v41.22c0,.85.32,1.58.96,2.18.64.6,1.35.91,2.13.91h17.57c.78,0,1.49-.3,2.13-.91.64-.6.96-1.33.96-2.18v-17.47c0-.85.3-1.58.91-2.18.6-.6,1.29-.91,2.08-.91h17.57c.78,0,1.49.3,2.13.91.64.6.96,1.33.96,2.18v29.29c0,.85-.32,1.58-.96,2.18-.64.6-1.35.91-2.13.91h-5.65c-.85,0-1.58-.3-2.18-.91-.6-.6-.91-1.33-.91-2.18v-5.65c0-.85-.32-1.58-.96-2.18-.64-.6-1.35-.91-2.13-.91h-5.75c-.78,0-1.47.3-2.08.91-.6.6-.91,1.33-.91,2.18v5.65c0,.85-.32,1.58-.96,2.18-.64.6-1.35.91-2.13.91h-29.4c-.78,0-1.49-.3-2.13-.91Z" fill="rgb(117, 57, 143)"/>
      <path d="M226.29,475.6c-.6-.6-.91-1.33-.91-2.18v-53.04c0-.78.3-1.49.91-2.13.6-.64,1.33-.96,2.18-.96h5.65c.85,0,1.58-.3,2.18-.91.6-.6.91-1.29.91-2.08v-5.75c0-.78.32-1.49.96-2.13.64-.64,1.35-.96,2.13-.96h41.22c.78,0,1.49.32,2.13.96.64.64.96,1.35.96,2.13v5.75c0,.78.3,1.47.91,2.08.6.6,1.33.91,2.18.91h5.65c.78,0,1.49.32,2.13.96.64.64.96,1.35.96,2.13v53.04c0,.85-.32,1.58-.96,2.18-.64.6-1.35.91-2.13.91h-17.57c-.78,0-1.47-.3-2.08-.91-.6-.6-.91-1.33-.91-2.18v-17.47c0-.85-.32-1.58-.96-2.18-.64-.6-1.35-.91-2.13-.91h-17.57c-.78,0-1.49.3-2.13.91-.64.6-.96,1.33-.96,2.18v17.47c0,.85-.3,1.58-.91,2.18-.6.6-1.33.91-2.18.91h-17.47c-.85,0-1.58-.3-2.18-.91ZM269.69,441.04c.78,0,1.49-.32,2.13-.96.64-.64.96-1.35.96-2.13v-17.57c0-.78-.32-1.49-.96-2.13-.64-.64-1.35-.96-2.13-.96h-17.57c-.78,0-1.49.32-2.13.96-.64.64-.96,1.35-.96,2.13v17.57c0,.78.32,1.49.96,2.13.64.64,1.35.96,2.13.96h17.57Z" fill="rgb(117, 57, 143)"/>
      <path d="M309.91,475.6c-.6-.6-.91-1.33-.91-2.18v-64.86c0-.78.3-1.49.91-2.13.6-.64,1.33-.96,2.18-.96h17.47c.85,0,1.58.32,2.18.96.6.64.91,1.35.91,2.13v5.75c0,.78.32,1.47.95,2.08.64.6,1.34.91,2.12.91h5.72c.78,0,1.47.32,2.07.95.6.63.9,1.34.9,2.11v5.7c0,.77.32,1.48.95,2.11.64.63,1.34.95,2.12.95h5.72c.78,0,1.48-.32,2.12-.95.64-.63.96-1.34.96-2.11v-5.7c0-.77.3-1.48.91-2.11.61-.63,1.31-.95,2.1-.95h5.8c.79,0,1.5-.3,2.15-.91.64-.6.97-1.29.97-2.08v-5.75c0-.78.3-1.49.91-2.13.6-.64,1.33-.96,2.18-.96h17.47c.85,0,1.58.32,2.18.96.6.64.91,1.35.91,2.13v64.86c0,.85-.3,1.58-.91,2.18-.6.6-1.33.91-2.18.91h-17.47c-.85,0-1.58-.3-2.18-.91-.6-.6-.91-1.33-.91-2.19v-41.31c0-.78-.32-1.48-.97-2.08-.65-.6-1.36-.91-2.15-.91h-5.8c-.79,0-1.49.3-2.1.91-.61.6-.91,1.3-.91,2.08v17.57c0,.78-.32,1.49-.96,2.13-.64.64-1.34.96-2.12.96h-17.49c-.78,0-1.49-.32-2.12-.96-.64-.64-.95-1.35-.95-2.13v-5.65c0-.85-.3-1.58-.91-2.18-.6-.6-1.33-.91-2.18-.91h-5.64c-.78,0-1.49.3-2.13.91-.64.6-.96,1.33-.96,2.18v29.38c0,.86-.3,1.59-.91,2.19-.6.61-1.33.91-2.18.91h-5.65c-.85,0-1.58-.3-2.18-.91Z" fill="rgb(117, 57, 143)"/>
      <path d="M406.3,475.6c-.6-.6-.91-1.33-.91-2.18v-64.86c0-.78.3-1.49.91-2.13.6-.64,1.33-.96,2.18-.96h53.04c.78,0,1.49.32,2.13.96.64.64.96,1.35.96,2.13v5.75c0,.78-.32,1.47-.96,2.08-.64.6-1.35.91-2.13.91h-29.4c-.78,0-1.49.32-2.13.96-.64.64-.96,1.35-.96,2.13v5.75c0,.78.32,1.49.96,2.13.64.64,1.35.96,2.13.96h17.58c.78,0,1.49.3,2.13.91.64.6.96,1.3.96,2.08v5.75c0,.78-.32,1.49-.96,2.13-.64.64-1.35.96-2.13.96h-17.58c-.78,0-1.49.3-2.13.91-.64.6-.96,1.33-.96,2.18v17.47c0,.85.32,1.58.96,2.18.64.6,1.35.91,2.13.91h29.4c.78,0,1.49.3,2.13.91.64.6.96,1.33.96,2.18v5.65c0,.85-.32,1.58-.96,2.18-.64.6-1.35.91-2.13.91h-53.04c-.85,0-1.58-.3-2.18-.91Z" fill="rgb(117, 57, 143)"/>
      <path d="M478.1,475.6c-.6-.6-.91-1.33-.91-2.18v-5.65c0-.85.3-1.58.91-2.18.61-.6,1.34-.91,2.19-.91h29.48c.78,0,1.48-.3,2.08-.91s.91-1.34.91-2.19v-5.67c0-.86-.3-1.59-.91-2.19s-1.3-.91-2.08-.91h-17.63c-.78,0-1.5-.32-2.14-.96-.64-.64-.96-1.35-.96-2.14v-5.67c0-.86-.3-1.59-.91-2.19s-1.33-.91-2.19-.91l-5.66.11c-.86,0-1.59-.32-2.19-.96-.6-.64-.91-1.35-.91-2.13v-17.57c0-.78.3-1.49.91-2.13.6-.64,1.33-.96,2.18-.96h5.65c.85,0,1.58-.3,2.18-.91.6-.6.91-1.29.91-2.08v-5.75c0-.78.32-1.49.96-2.13s1.35-.96,2.13-.96h41.22c.78,0,1.49.32,2.13.96.64.64.96,1.35.96,2.13v5.75c0,.78-.32,1.47-.96,2.08-.64.6-1.35.91-2.13.91h-29.4c-.78,0-1.49.32-2.13.95-.64.63-.96,1.34-.96,2.11v5.7c0,.77.32,1.48.96,2.11.64.63,1.35.95,2.13.95h17.57c.78,0,1.49.3,2.13.91.64.6.96,1.3.96,2.08v5.75c0,.78.3,1.49.91,2.13.6.64,1.29.96,2.08.96h5.75c.78,0,1.49.3,2.13.91.64.61.96,1.34.96,2.19v17.55c0,.86-.32,1.59-.96,2.19-.64.61-1.35.91-2.13.91h-5.75c-.78,0-1.47.3-2.08.91s-.91,1.33-.91,2.18v5.65c0,.85-.32,1.58-.96,2.18-.64.6-1.35.91-2.13.91h-41.22c-.85,0-1.58-.3-2.18-.91Z" fill="rgb(117, 57, 143)"/>
      <path d="M572.3,475.6c-.64-.6-.96-1.33-.96-2.18v-53.04c0-.78-.3-1.49-.91-2.13-.6-.64-1.33-.96-2.18-.96h-17.47c-.85,0-1.58-.3-2.18-.91-.6-.6-.91-1.29-.91-2.08v-5.75c0-.78.3-1.49.91-2.13.6-.64,1.33-.96,2.18-.96h64.86c.78,0,1.49.32,2.13.96.64.64.96,1.35.96,2.13v5.75c0,.78-.32,1.47-.96,2.08-.64.6-1.35.91-2.13.91h-17.57c-.78,0-1.49.32-2.13.96-.64.64-.96,1.35-.96,2.13v53.04c0,.85-.3,1.58-.91,2.18-.6.6-1.3.91-2.08.91h-17.57c-.78,0-1.49-.3-2.13-.91Z" fill="rgb(117, 57, 143)"/>
      <path d="M629.02,475.6c-.6-.6-.91-1.33-.91-2.18v-64.86c0-.78.3-1.49.91-2.13.6-.64,1.33-.96,2.18-.96h53.04c.78,0,1.49.32,2.13.96.64.64.96,1.35.96,2.13v5.75c0,.78.3,1.47.91,2.08.6.6,1.33.91,2.18.91h5.64c.78,0,1.49.32,2.13.96.64.64.96,1.34.96,2.12v17.49c0,.78-.32,1.49-.96,2.12-.64.64-1.35.95-2.13.95h-5.64c-.85,0-1.58.3-2.18.91-.6.61-.91,1.34-.91,2.19v17.55c0,.86.3,1.59.91,2.19.6.61,1.33.91,2.18.91h5.64c.78,0,1.49.3,2.13.91.64.6.96,1.33.96,2.18v5.65c0,.85-.32,1.58-.96,2.18-.64.6-1.35.91-2.13.91h-17.53c-.78,0-1.47-.3-2.07-.91-.6-.6-.9-1.33-.9-2.18v-5.65c0-.85-.32-1.58-.95-2.18-.64-.6-1.34-.91-2.12-.91h-5.72c-.78,0-1.49-.3-2.12-.91-.64-.6-.95-1.33-.95-2.18v-5.65c0-.85-.3-1.58-.91-2.18-.61-.6-1.31-.91-2.1-.91h-5.8c-.79,0-1.51.3-2.15.91-.65.6-.97,1.33-.97,2.18v17.47c0,.85-.3,1.58-.91,2.18-.6.6-1.33.91-2.18.91h-17.47c-.85,0-1.58-.3-2.18-.91ZM672.42,440.93c.78,0,1.49-.32,2.13-.95.64-.64.96-1.34.96-2.12v-17.49c0-.78-.32-1.48-.96-2.12-.64-.64-1.35-.96-2.13-.96h-17.57c-.78,0-1.49.32-2.13.96s-.96,1.35-.96,2.13v17.57c0,.78.32,1.49.96,2.13.64.64,1.35.96,2.13.96l17.57-.11Z" fill="rgb(117, 57, 143)"/>
    </g>
  </g>
</svg>