<svg xmlns="http://www.w3.org/2000/svg" id="Layer_1" viewBox="0 0 841.89 595.28">
  <defs>
    
  </defs>
  <g transform="matrix(1.168784, 0, 0, 1.168784, -89.107071, -47.115002)">
    <g>
      <g>
        <path d="M443.98,273.2s16.22,65.65-26.42,65.65h-.63c-42.64,0-26.42-65.65-26.42-65.65" fill="rgb(232, 36, 53)"/>
        <path d="M417.56,342.93h-.63c-10.68,0-19.01-3.72-24.76-11.07-15.29-19.53-6.02-58-5.62-59.63.54-2.18,2.74-3.51,4.93-2.97,2.18.54,3.52,2.74,2.98,4.93-.02.09-2.28,9.36-2.8,20.61-.46,10,.36,23.67,6.93,32.05,4.19,5.34,10.19,7.94,18.34,7.94h.63c8.16,0,14.15-2.6,18.34-7.94,6.57-8.38,7.39-22.06,6.93-32.05-.52-11.26-2.78-20.52-2.8-20.61-.54-2.18.8-4.39,2.98-4.93,2.18-.54,4.39.79,4.93,2.98.4,1.63,9.67,40.1-5.62,59.63-5.75,7.35-14.08,11.07-24.76,11.07Z"/>
      </g>
      <path d="M415.62,309.51c-1.77,0-3.21-1.44-3.21-3.21v-22.24c0-1.77,1.44-3.21,3.21-3.21s3.21,1.44,3.21,3.21v22.24c0,1.77-1.44,3.21-3.21,3.21Z" fill="rgb(35, 31, 32)"/>
    </g>
    <g>
      <path d="M328.26,130.59l20.05-1.23c-1.8-6.74-7.78-11.11-14.85-11.57-12.47-.82-24.93,1.98-35.4,8.63-6.6,4.2-12.06,12.16-7.79,16.94,11.79-7.4,24.25-11.93,37.99-12.77ZM544.59,143.05c2.28-6.12-1.03-10.18-5.02-14.17-11.83-8.61-27.33-12.57-42.15-10.71-6.18.78-11.04,5.29-11.9,11.24l20.22,1.12c13.76.76,26.38,5.25,38.84,12.52ZM464.22,275.19c15.09,1.1,26.54,10.58,35.04,22.19l26.46,36.16c7.12,9.72,16.58,16.89,28.35,19.58,16.52,3.77,32.47-4.06,38.97-19.58,6.88-16.42,4.47-38.65.94-56.88-5.25-27.09-12.12-53.23-20.51-79.47-2.89-9.03-6.23-17.2-10.34-25.57-6.4-13.04-16.8-22.79-30.31-28.36-11.41-4.71-23.37-7.24-35.82-7.83l-22.79-1.07h-112.96s-23.61,1.08-23.61,1.08c-19.8.9-41.58,6.58-55.58,20.69-6.62,6.67-11.29,14.64-14.75,23.53-8.76,22.52-14.92,45.19-20.86,68.67-6.25,24.7-13.72,58.52-6.38,81.75,4.44,14.05,15.8,23.53,30.77,23.91,10.41.26,20.76-3.56,27.81-11.12l11.43-12.25,25.26-34.86c9.5-13.11,23.39-21.27,39.74-21.27l79.65-.02,9.48.69Z" fill="rgb(196, 0, 179)"/>
      <path d="M562.28,364.24c-3.44,0-6.94-.39-10.46-1.19-13.44-3.07-25.3-11.19-34.3-23.49l-26.46-36.16c-8.23-11.25-17.5-17.32-27.57-18.05l-9.11-.66-79.27.02c-12.34,0-23.53,6.06-31.5,17.07l-25.63,35.37-11.86,12.71c-8.83,9.46-21.78,14.72-35.51,14.34-18.91-.48-34.32-12.36-40.22-31.02-7.77-24.57-1.22-57.93,6.22-87.31,5.34-21.11,11.82-45.65,21.25-69.87,4.25-10.91,9.81-19.74,17.01-27,1.49-1.5,3.04-2.91,4.64-4.24-.85-2.44-1.11-5.09-.74-7.82,1.15-8.32,7.91-15.32,13.85-19.09,12.05-7.66,26.41-11.19,41.53-10.2,10.82.71,19.7,7.19,23.26,16.74l3.87-.17h113.2s1.84.08,1.84.08c2.75-8.58,10.47-15.03,19.86-16.21,17.42-2.19,35.42,2.4,49.41,12.58l.65.47.56.57c3.44,3.45,11.27,11.28,7.97,23.01,7.27,6.07,13.2,13.63,17.53,22.45,4.45,9.07,7.92,17.64,10.9,26.96,8.85,27.66,15.65,54.04,20.8,80.63,5.34,27.55,4.85,47.48-1.54,62.75-6.98,16.68-22.67,26.76-40.17,26.76ZM455.11,264.32l9.85.72c16.29,1.19,30.6,10.05,42.52,26.33l26.46,36.16c6.15,8.41,13.69,13.68,22.4,15.67,11.81,2.7,22.79-2.76,27.32-13.59,4.7-11.23,4.81-27.92.34-51.01-5-25.8-11.61-51.41-20.21-78.3-2.67-8.35-5.78-16.03-9.78-24.18-5.35-10.9-13.78-18.79-25.06-23.44-10.07-4.15-20.98-6.53-32.42-7.07l-22.55-1.06h-112.49s-23.38,1.07-23.38,1.07c-12.23.56-34.84,3.6-48.82,17.69-5.19,5.24-9.28,11.8-12.49,20.05-9,23.13-15.29,46.96-20.48,67.48-6.73,26.61-12.77,56.47-6.54,76.19,3.29,10.42,11.07,16.55,21.33,16.8,7.91.17,15.25-2.67,20.11-7.89l11-11.79,24.89-34.35c11.9-16.42,28.94-25.47,47.98-25.48l80.02-.02Z"/>
    </g>
    <path d="M464.22,275.19l-9.48-.69-79.65.02c-16.35,0-30.24,8.16-39.74,21.27l-25.26,34.86-11.43,12.25c-7.06,7.56-17.4,11.38-27.81,11.12-14.97-.38-26.33-9.86-30.77-23.91-7.34-23.23.13-57.05,6.38-81.75,5.94-23.48,12.1-46.16,20.86-68.67,3.46-8.89,8.13-16.86,14.75-23.53,14-14.11,35.78-19.79,55.58-20.69l23.61-1.08h112.96s22.79,1.06,22.79,1.06c12.45.58,24.41,3.12,35.82,7.83,13.51,5.57,23.91,15.32,30.31,28.36,4.11,8.37,7.45,16.54,10.34,25.57,8.39,26.24,15.26,52.38,20.51,79.47,3.53,18.23,5.94,40.46-.94,56.88-6.5,15.52-22.46,23.35-38.97,19.58-11.78-2.69-21.24-9.86-28.35-19.58l-26.46-36.16c-8.5-11.62-19.96-21.1-35.04-22.19Z" fill="rgb(255, 255, 255)"/>
    <g>
      <path d="M328.26,130.59c-13.74.85-26.2,5.37-37.99,12.77-4.27-4.78,1.18-12.74,7.79-16.94,10.47-6.66,22.93-9.45,35.4-8.63,7.07.46,13.04,4.83,14.85,11.57l-20.05,1.23Z" fill="rgb(161, 0, 255)"/>
      <path d="M290.2,143.89l-.23-.26c-1.31-1.47-1.83-3.27-1.54-5.36.56-4.07,4.35-8.97,9.41-12.19,10.29-6.54,22.61-9.55,35.65-8.7,7.44.49,13.41,5.15,15.21,11.87l.13.48-20.54,1.26c-13.09.81-25.46,4.96-37.8,12.71l-.29.18ZM329.18,118.05c-11.27,0-21.88,2.98-30.9,8.71-4.88,3.1-8.51,7.77-9.04,11.62-.24,1.72.14,3.21,1.12,4.45,12.36-7.7,24.75-11.84,37.88-12.65l19.54-1.2c-1.86-6.12-7.43-10.33-14.34-10.79-1.43-.09-2.85-.14-4.26-.14Z" fill="rgb(161, 0, 255)"/>
    </g>
    <g>
      <path d="M544.59,143.05c-12.47-7.27-25.08-11.75-38.84-12.52l-20.22-1.12c.86-5.94,5.72-10.46,11.9-11.24,14.82-1.86,30.32,2.1,42.15,10.71,3.98,3.99,7.29,8.05,5.02,14.17Z" fill="rgb(252, 102, 0)"/>
      <path d="M544.8,143.65l-.42-.24c-13.16-7.67-25.81-11.75-38.66-12.46l-20.67-1.15.06-.44c.89-6.12,5.81-10.77,12.25-11.58,14.97-1.89,30.44,2.05,42.44,10.78,4.1,4.1,7.53,8.26,5.16,14.64l-.17.45ZM486,129.03l19.77,1.1c12.84.71,25.47,4.75,38.6,12.33,1.87-5.67-1.33-9.52-5.08-13.28-11.78-8.57-27.04-12.45-41.81-10.59-5.92.74-10.47,4.92-11.48,10.45Z" fill="rgb(252, 102, 0)"/>
    </g>
    <g>
      <path d="M337.52,250.7l-9.71-.06c-4.3-.03-7.12-3.67-7.13-7.77v-17.64s-16.89-.23-16.89-.23c-4.42-.06-8.85-2.28-8.82-7.51l.05-8.68c.03-5.72,4.65-8.38,9.6-8.39l16.23-.04.2-18.74c.03-2.42,2.93-6.31,5.52-6.29l13.15.07c3.05.02,5.48,4.38,5.53,7.26l.29,17.71,18.65.17c7.28.07,8.09,9.13,6.76,18.12-.37,2.52-3.27,6.1-5.97,6.13l-19.48.25-.25,17.65c-.06,4.09-3.2,8.05-7.75,8.02Z" fill="rgb(158, 157, 157)"/>
      <path d="M337.57,253.55s-.05,0-.07,0l-9.71-.06c-5.58-.04-9.95-4.7-9.96-10.62v-14.83s-14.08-.19-14.08-.19c-6.99-.1-11.66-4.27-11.63-10.38l.05-8.68c.04-6.59,5.15-11.21,12.45-11.23l13.41-.04.17-15.93c.04-3.61,3.8-9.11,8.36-9.11h.03l13.15.07c5.01.03,8.3,5.98,8.37,10.06l.25,14.93,15.88.15c2.83.03,5.24,1.11,6.96,3.12,2.99,3.5,3.86,9.65,2.58,18.27-.57,3.84-4.6,8.51-8.75,8.56l-16.71.21-.21,14.87c-.09,5.98-4.81,10.83-10.54,10.83ZM326.56,178.18c-.87.1-2.65,2.4-2.66,3.47l-.23,21.55-19.04.05c-1.58,0-6.73.42-6.76,5.56l-.05,8.68c-.02,4.24,4.59,4.63,6.01,4.65l19.68.27v20.45c.02,2.43,1.49,4.91,4.31,4.92l9.71.06h.03c2.95,0,4.81-2.7,4.84-5.21l.29-20.42,22.25-.28c.93-.01,2.96-2.19,3.19-3.7.98-6.62.52-11.63-1.28-13.73-.66-.77-1.48-1.12-2.68-1.13l-21.43-.2-.34-20.48c-.03-1.88-1.75-4.46-2.7-4.46l-13.15-.07Z"/>
    </g>
    <g>
      <g>
        <circle cx="504.77" cy="236.98" r="13.73" fill="rgb(177, 255, 0)"/>
        <path d="M504.77,252.74c-8.69,0-15.76-7.07-15.76-15.76s7.07-15.76,15.76-15.76,15.76,7.07,15.76,15.76-7.07,15.76-15.76,15.76ZM504.77,225.29c-6.45,0-11.69,5.24-11.69,11.69s5.24,11.69,11.69,11.69,11.69-5.24,11.69-11.69-5.24-11.69-11.69-11.69Z"/>
      </g>
      <g>
        <circle cx="504.72" cy="181.13" r="13.67" fill="rgb(252, 224, 0)"/>
        <path d="M504.72,196.83c-8.66,0-15.7-7.04-15.7-15.7s7.04-15.7,15.7-15.7,15.7,7.04,15.7,15.7-7.04,15.7-15.7,15.7ZM504.72,169.49c-6.41,0-11.63,5.22-11.63,11.63s5.22,11.63,11.63,11.63,11.63-5.22,11.63-11.63-5.22-11.63-11.63-11.63Z"/>
      </g>
      <g>
        <circle cx="533.66" cy="208.86" r="13.67" fill="rgb(232, 36, 53)"/>
        <path d="M533.66,224.56c-8.66,0-15.7-7.04-15.7-15.7s7.04-15.7,15.7-15.7,15.7,7.04,15.7,15.7-7.04,15.7-15.7,15.7ZM533.66,197.23c-6.41,0-11.63,5.22-11.63,11.63s5.22,11.63,11.63,11.63,11.63-5.22,11.63-11.63-5.22-11.63-11.63-11.63Z"/>
      </g>
      <g>
        <circle cx="476.68" cy="208.89" r="13.62" fill="rgb(58, 198, 255)"/>
        <path d="M476.68,224.55c-8.63,0-15.66-7.02-15.66-15.66s7.02-15.66,15.66-15.66,15.66,7.02,15.66,15.66-7.02,15.66-15.66,15.66ZM476.68,197.3c-6.39,0-11.59,5.2-11.59,11.59s5.2,11.59,11.59,11.59,11.59-5.2,11.59-11.59-5.2-11.59-11.59-11.59Z"/>
      </g>
    </g>
    <g>
      <ellipse cx="401.41" cy="255.46" rx="5.99" ry="7.24"/>
      <ellipse cx="433.08" cy="255.46" rx="5.99" ry="7.24"/>
    </g>
    <g>
      <path d="M420.83,172.64s-1.43.58-1.65-.6c-.27-1.44-.24-20.8-.24-20.8l-17.8,33.68s-.86,1.7,1.08,1.1l9.98-3.06,1.1,21.1,17.98-34.44-10.45,3.02Z" fill="rgb(252, 224, 0)"/>
      <path d="M413.3,206.1c-.14,0-.29-.02-.43-.05-.9-.2-1.55-.97-1.6-1.88l-.96-18.49-7.49,2.3c-1.8.55-2.8-.06-3.32-.68-.85-1.01-.64-2.36-.17-3.29l17.81-33.71c.44-.83,1.38-1.25,2.29-1.02.91.23,1.55,1.04,1.54,1.98-.01,7.57.03,15.97.14,19.19l9.6-2.77c.78-.22,1.62.04,2.14.67s.61,1.51.23,2.23l-17.98,34.44c-.36.68-1.06,1.09-1.8,1.09ZM412.2,180.93c.41,0,.82.13,1.17.37.51.36.83.94.87,1.56l.71,13.66,12.33-23.61-5.8,1.68c-.5.18-1.71.5-2.85-.12-.76-.41-1.27-1.14-1.44-2.04-.18-.96-.25-7.15-.27-12.98l-12.58,23.81,7.27-2.23c.2-.06.4-.09.6-.09Z"/>
    </g>
    <g>
      <path d="M194.34,450.03c-.54-.51-.82-1.13-.82-1.86v-4.8c0-.72-.26-1.34-.77-1.86-.51-.51-1.13-.77-1.86-.77h-4.8c-.72,0-1.34-.26-1.86-.77-.51-.51-.77-1.13-.77-1.86v-35.05c0-.66.26-1.27.77-1.81.51-.54,1.13-.82,1.86-.82h4.8c.72,0,1.34-.26,1.86-.77.51-.51.77-1.1.77-1.77v-4.89c0-.66.27-1.27.82-1.81.54-.54,1.15-.81,1.81-.81h45.11c.66,0,1.27.27,1.81.81.54.54.81,1.15.81,1.81v4.89c0,.66-.27,1.25-.81,1.77-.54.51-1.15.77-1.81.77h-35.05c-.67,0-1.27.27-1.81.82-.54.54-.82,1.15-.82,1.81v35.05c0,.72.27,1.34.82,1.86.54.51,1.15.77,1.81.77h14.94c.66,0,1.27-.26,1.81-.77.54-.51.82-1.13.82-1.86v-14.85c0-.73.26-1.34.77-1.86.51-.51,1.1-.77,1.77-.77h14.94c.66,0,1.27.26,1.81.77.54.51.81,1.13.81,1.86v24.91c0,.73-.27,1.34-.81,1.86-.54.51-1.15.77-1.81.77h-4.8c-.72,0-1.34-.26-1.86-.77-.51-.51-.77-1.13-.77-1.86v-4.8c0-.72-.27-1.34-.82-1.86-.54-.51-1.15-.77-1.81-.77h-4.89c-.67,0-1.25.26-1.77.77-.51.51-.77,1.13-.77,1.86v4.8c0,.73-.27,1.34-.82,1.86-.54.51-1.15.77-1.81.77h-25c-.67,0-1.27-.26-1.81-.77Z" fill="rgb(255, 255, 255)"/>
      <path d="M255.35,450.03c-.51-.51-.77-1.13-.77-1.86v-45.11c0-.66.26-1.27.77-1.81.51-.54,1.13-.82,1.86-.82h4.8c.72,0,1.34-.26,1.86-.77.51-.51.77-1.1.77-1.77v-4.89c0-.66.27-1.27.82-1.81.54-.54,1.15-.81,1.81-.81h35.05c.66,0,1.27.27,1.81.81.54.54.82,1.15.82,1.81v4.89c0,.66.26,1.25.77,1.77.51.51,1.13.77,1.86.77h4.8c.66,0,1.27.27,1.81.82.54.54.81,1.15.81,1.81v45.11c0,.73-.27,1.34-.81,1.86-.54.51-1.15.77-1.81.77h-14.94c-.67,0-1.25-.26-1.77-.77-.51-.51-.77-1.13-.77-1.86v-14.85c0-.72-.27-1.34-.82-1.86-.54-.51-1.15-.77-1.81-.77h-14.94c-.67,0-1.27.26-1.81.77-.54.51-.82,1.13-.82,1.86v14.85c0,.73-.26,1.34-.77,1.86-.51.51-1.13.77-1.86.77h-14.85c-.72,0-1.34-.26-1.86-.77ZM292.26,420.64c.66,0,1.27-.27,1.81-.81.54-.54.82-1.15.82-1.81v-14.94c0-.66-.27-1.27-.82-1.81-.54-.54-1.15-.82-1.81-.82h-14.94c-.67,0-1.27.27-1.81.82-.54.54-.82,1.15-.82,1.81v14.94c0,.67.27,1.27.82,1.81.54.54,1.15.81,1.81.81h14.94Z" fill="rgb(255, 255, 255)"/>
      <path d="M326.45,450.03c-.51-.51-.77-1.13-.77-1.86v-55.16c0-.66.26-1.27.77-1.81.51-.54,1.13-.81,1.86-.81h14.85c.72,0,1.34.27,1.86.81.51.54.77,1.15.77,1.81v4.89c0,.66.27,1.25.81,1.77.54.51,1.14.77,1.8.77h4.87c.66,0,1.25.27,1.76.81.51.54.77,1.14.77,1.79v4.85c0,.66.27,1.26.81,1.79.54.54,1.14.81,1.8.81h4.87c.66,0,1.26-.27,1.8-.81.54-.54.81-1.14.81-1.79v-4.85c0-.66.26-1.26.78-1.79.52-.54,1.11-.81,1.78-.81h4.93c.67,0,1.28-.26,1.83-.77.55-.51.82-1.1.82-1.77v-4.89c0-.66.26-1.27.77-1.81.51-.54,1.13-.81,1.86-.81h14.85c.72,0,1.34.27,1.86.81.51.54.77,1.15.77,1.81v55.16c0,.73-.26,1.34-.77,1.86-.51.51-1.13.77-1.86.77h-14.85c-.72,0-1.34-.26-1.86-.77-.51-.51-.77-1.13-.77-1.86v-35.13c0-.67-.27-1.26-.82-1.77-.55-.51-1.16-.77-1.83-.77h-4.93c-.67,0-1.26.26-1.78.77-.52.51-.78,1.1-.78,1.77v14.94c0,.66-.27,1.27-.81,1.81-.54.54-1.14.81-1.8.81h-14.88c-.66,0-1.26-.27-1.8-.81-.54-.54-.81-1.15-.81-1.81v-4.8c0-.73-.26-1.34-.77-1.86-.51-.51-1.13-.77-1.86-.77h-4.8c-.67,0-1.27.26-1.81.77-.54.51-.82,1.13-.82,1.86v24.99c0,.73-.26,1.35-.77,1.87-.51.52-1.13.77-1.86.77h-4.8c-.72,0-1.34-.26-1.86-.77Z" fill="rgb(255, 255, 255)"/>
      <path d="M408.42,450.03c-.51-.51-.77-1.13-.77-1.86v-55.16c0-.66.26-1.27.77-1.81.51-.54,1.13-.81,1.86-.81h45.1c.66,0,1.27.27,1.81.81.54.54.81,1.15.81,1.81v4.89c0,.66-.27,1.25-.81,1.77-.54.51-1.15.77-1.81.77h-25c-.66,0-1.27.27-1.81.82-.54.54-.82,1.15-.82,1.81v4.89c0,.67.27,1.27.82,1.81.54.54,1.15.82,1.81.82h14.95c.66,0,1.27.26,1.81.77.54.51.82,1.1.82,1.77v4.89c0,.67-.27,1.27-.82,1.81-.54.54-1.15.81-1.81.81h-14.95c-.66,0-1.27.26-1.81.77-.54.51-.82,1.13-.82,1.86v14.85c0,.72.27,1.34.82,1.86.54.51,1.15.77,1.81.77h25c.66,0,1.27.26,1.81.77.54.51.81,1.13.81,1.86v4.8c0,.73-.27,1.34-.81,1.86-.54.51-1.15.77-1.81.77h-45.1c-.73,0-1.34-.26-1.86-.77Z" fill="rgb(255, 255, 255)"/>
      <path d="M469.47,450.03c-.51-.51-.77-1.13-.77-1.86v-4.8c0-.72.26-1.34.77-1.86.52-.51,1.14-.77,1.86-.77h25.07c.67,0,1.26-.26,1.77-.77s.77-1.14.77-1.87v-4.82c0-.73-.26-1.35-.77-1.86s-1.11-.77-1.77-.77h-14.99c-.67,0-1.27-.27-1.82-.82-.55-.55-.82-1.15-.82-1.82v-4.82c0-.73-.26-1.35-.77-1.86s-1.13-.77-1.86-.77l-4.81.09c-.73,0-1.35-.27-1.86-.81-.51-.54-.77-1.15-.77-1.81v-14.94c0-.66.26-1.27.77-1.81.51-.54,1.13-.82,1.86-.82h4.8c.72,0,1.34-.26,1.86-.77.51-.51.77-1.1.77-1.77v-4.89c0-.66.27-1.27.81-1.81s1.15-.81,1.81-.81h35.05c.66,0,1.27.27,1.81.81.54.54.81,1.15.81,1.81v4.89c0,.66-.27,1.25-.81,1.77-.54.51-1.15.77-1.81.77h-25c-.67,0-1.27.27-1.81.81-.54.54-.81,1.14-.81,1.79v4.85c0,.66.27,1.26.81,1.79.54.54,1.15.81,1.81.81h14.94c.66,0,1.27.26,1.81.77.54.51.82,1.1.82,1.77v4.89c0,.67.26,1.27.77,1.81.51.54,1.1.81,1.77.81h4.89c.66,0,1.27.26,1.81.77.54.52.81,1.14.81,1.86v14.92c0,.73-.27,1.35-.81,1.87-.54.52-1.15.77-1.81.77h-4.89c-.66,0-1.25.26-1.77.77s-.77,1.13-.77,1.86v4.8c0,.73-.27,1.34-.82,1.86-.54.51-1.15.77-1.81.77h-35.05c-.72,0-1.34-.26-1.86-.77Z" fill="rgb(255, 255, 255)"/>
      <path d="M549.58,450.03c-.54-.51-.81-1.13-.81-1.86v-45.11c0-.66-.26-1.27-.77-1.81-.51-.54-1.13-.82-1.86-.82h-14.85c-.73,0-1.34-.26-1.86-.77-.51-.51-.77-1.1-.77-1.77v-4.89c0-.66.26-1.27.77-1.81.51-.54,1.13-.81,1.86-.81h55.16c.66,0,1.27.27,1.81.81.54.54.81,1.15.81,1.81v4.89c0,.66-.27,1.25-.81,1.77-.54.51-1.15.77-1.81.77h-14.94c-.67,0-1.27.27-1.81.82-.54.54-.82,1.15-.82,1.81v45.11c0,.73-.26,1.34-.77,1.86-.51.51-1.1.77-1.77.77h-14.94c-.66,0-1.27-.26-1.81-.77Z" fill="rgb(255, 255, 255)"/>
      <path d="M597.81,450.03c-.51-.51-.77-1.13-.77-1.86v-55.16c0-.66.26-1.27.77-1.81.51-.54,1.13-.81,1.86-.81h45.11c.66,0,1.27.27,1.81.81.54.54.81,1.15.81,1.81v4.89c0,.66.26,1.25.77,1.77.51.51,1.13.77,1.86.77h4.8c.66,0,1.27.27,1.81.81.54.54.81,1.14.81,1.8v14.88c0,.66-.27,1.26-.81,1.8-.54.54-1.15.81-1.81.81h-4.8c-.73,0-1.34.26-1.86.77-.51.52-.77,1.14-.77,1.86v14.92c0,.73.26,1.35.77,1.87.51.52,1.13.77,1.86.77h4.8c.66,0,1.27.26,1.81.77.54.51.81,1.13.81,1.86v4.8c0,.73-.27,1.34-.81,1.86-.54.51-1.15.77-1.81.77h-14.91c-.66,0-1.25-.26-1.76-.77-.51-.51-.77-1.13-.77-1.86v-4.8c0-.72-.27-1.34-.81-1.86-.54-.51-1.14-.77-1.8-.77h-4.87c-.66,0-1.26-.26-1.8-.77-.54-.51-.81-1.13-.81-1.86v-4.8c0-.72-.26-1.34-.78-1.86-.52-.51-1.11-.77-1.78-.77h-4.93c-.67,0-1.28.26-1.83.77-.55.51-.82,1.13-.82,1.86v14.85c0,.73-.26,1.34-.77,1.86-.51.51-1.13.77-1.86.77h-14.85c-.72,0-1.34-.26-1.86-.77ZM634.72,420.55c.66,0,1.27-.27,1.81-.81.54-.54.82-1.14.82-1.8v-14.88c0-.66-.27-1.26-.82-1.8-.54-.54-1.15-.81-1.81-.81h-14.94c-.67,0-1.27.27-1.81.82s-.81,1.15-.81,1.81v14.94c0,.67.27,1.27.81,1.81.54.54,1.15.81,1.81.81l14.94-.09Z" fill="rgb(255, 255, 255)"/>
    </g>
    <g>
      <path d="M204.93,484.98c-.11-.11-.17-.25-.17-.41v-12.25c0-.15.06-.28.17-.4.11-.12.25-.18.41-.18h10.02c.15,0,.28.06.4.18.12.12.18.25.18.4v1.09c0,.15.06.28.17.39.11.11.25.17.41.17h1.07c.15,0,.28.06.4.18.12.12.18.25.18.4v7.79c0,.16-.06.3-.18.41-.12.11-.25.17-.4.17h-1.07c-.16,0-.3.06-.41.17-.11.11-.17.25-.17.41v1.07c0,.16-.06.3-.18.41-.12.11-.25.17-.4.17h-10.02c-.16,0-.3-.06-.41-.17ZM213.13,482.92c.15,0,.28-.06.4-.17.12-.11.18-.25.18-.41v-7.79c0-.15-.06-.28-.18-.4-.12-.12-.25-.18-.4-.18h-3.32c-.15,0-.28.06-.4.18-.12.12-.18.25-.18.4v7.79c0,.16.06.3.18.41s.25.17.4.17h3.32Z" fill="rgb(252, 102, 0)"/>
      <path d="M222.17,484.98c-.11-.11-.17-.25-.17-.41v-12.25c0-.15.06-.28.17-.4.11-.12.25-.18.41-.18h10.02c.15,0,.28.06.4.18.12.12.18.25.18.4v1.09c0,.15-.06.28-.18.39-.12.11-.25.17-.4.17h-5.55c-.15,0-.28.06-.4.18-.12.12-.18.25-.18.4v1.09c0,.15.06.28.18.4.12.12.25.18.4.18h3.32c.15,0,.28.06.4.17.12.11.18.25.18.39v1.09c0,.15-.06.28-.18.4-.12.12-.25.18-.4.18h-3.32c-.15,0-.28.06-.4.17-.12.11-.18.25-.18.41v3.3c0,.16.06.3.18.41s.25.17.4.17h5.55c.15,0,.28.06.4.17.12.11.18.25.18.41v1.07c0,.16-.06.3-.18.41-.12.11-.25.17-.4.17h-10.02c-.16,0-.3-.06-.41-.17Z" fill="rgb(252, 102, 0)"/>
      <path d="M239.43,484.98c-.12-.11-.18-.25-.18-.41v-1.07c0-.16-.06-.3-.17-.41-.11-.11-.25-.17-.41-.17h-1.07c-.16,0-.3-.06-.41-.17s-.17-.25-.17-.41v-7.79c0-.15.06-.28.17-.4.11-.12.25-.18.41-.18h1.07c.16,0,.3-.06.41-.17.11-.11.17-.24.17-.39v-1.09c0-.15.06-.28.18-.4.12-.12.25-.18.4-.18h10.02c.15,0,.28.06.4.18.12.12.18.25.18.4v3.32c0,.15-.06.28-.18.4-.12.12-.25.18-.4.18h-1.07c-.16,0-.3-.06-.41-.18-.11-.12-.17-.25-.17-.4v-1.09c0-.15-.06-.28-.18-.4-.12-.12-.25-.18-.4-.18h-5.55c-.15,0-.28.06-.4.18-.12.12-.18.25-.18.4v7.79c0,.16.06.3.18.41s.25.17.4.17h5.55c.15,0,.28-.06.4-.17.12-.11.18-.25.18-.41v-1.07c0-.16.06-.3.17-.41.11-.11.25-.17.41-.17h1.07c.15,0,.28.06.4.17.12.11.18.25.18.41v1.07c0,.16-.06.3-.18.41-.12.11-.25.17-.4.17h-1.07c-.16,0-.3.06-.41.17-.11.11-.17.25-.17.41v1.07c0,.16-.06.3-.18.41-.12.11-.25.17-.4.17h-7.79c-.15,0-.28-.06-.4-.17Z" fill="rgb(252, 102, 0)"/>
      <path d="M254.43,484.98c-.11-.11-.17-.25-.17-.41v-12.25c0-.15.06-.28.17-.4.11-.12.25-.18.41-.18h10.02c.15,0,.28.06.4.18.12.12.18.25.18.4v1.09c0,.15-.06.28-.18.39-.12.11-.25.17-.4.17h-5.55c-.15,0-.28.06-.4.18-.12.12-.18.25-.18.4v1.09c0,.15.06.28.18.4.12.12.25.18.4.18h3.32c.15,0,.28.06.4.17.12.11.18.25.18.39v1.09c0,.15-.06.28-.18.4-.12.12-.25.18-.4.18h-3.32c-.15,0-.28.06-.4.17-.12.11-.18.25-.18.41v3.3c0,.16.06.3.18.41s.25.17.4.17h5.55c.15,0,.28.06.4.17.12.11.18.25.18.41v1.07c0,.16-.06.3-.18.41-.12.11-.25.17-.4.17h-10.02c-.16,0-.3-.06-.41-.17Z" fill="rgb(252, 102, 0)"/>
      <path d="M269.44,484.98c-.11-.11-.17-.25-.17-.41v-12.25c0-.15.06-.28.17-.4.11-.12.25-.18.41-.18h5.54c.15,0,.28.06.39.18.11.12.17.25.17.4v3.3c0,.15.06.28.18.4s.25.18.4.18h1.08c.15,0,.28.06.4.17.12.12.18.25.18.39v3.33c0,.15.06.28.17.4.11.12.25.18.4.18h1.1c.15,0,.28-.06.41-.18.12-.12.18-.25.18-.4v-7.79c0-.15.06-.28.17-.4.11-.12.25-.18.41-.18h1.07c.15,0,.28.06.4.18.12.12.18.25.18.4v12.25c0,.16-.06.3-.18.41-.12.11-.25.17-.4.17h-5.55c-.15,0-.28-.06-.4-.17s-.18-.25-.18-.41v-3.3c0-.16-.06-.3-.17-.41-.11-.11-.25-.17-.39-.17h-1.09c-.15,0-.28-.06-.4-.18s-.18-.26-.18-.4v-3.33c0-.15-.06-.28-.17-.39-.11-.11-.25-.17-.41-.17h-1.07c-.15,0-.28.06-.4.17s-.18.25-.18.39v7.8c0,.16-.06.3-.17.41-.11.11-.25.17-.41.17h-1.07c-.16,0-.3-.06-.41-.17Z" fill="rgb(252, 102, 0)"/>
      <path d="M288.92,484.98c-.12-.11-.18-.25-.18-.41v-10.02c0-.15-.06-.28-.17-.4-.11-.12-.25-.18-.41-.18h-3.3c-.16,0-.3-.06-.41-.17-.11-.11-.17-.24-.17-.39v-1.09c0-.15.06-.28.17-.4.11-.12.25-.18.41-.18h12.25c.15,0,.28.06.4.18.12.12.18.25.18.4v1.09c0,.15-.06.28-.18.39-.12.11-.25.17-.4.17h-3.32c-.15,0-.28.06-.4.18-.12.12-.18.25-.18.4v10.02c0,.16-.06.3-.17.41-.11.11-.25.17-.39.17h-3.32c-.15,0-.28-.06-.4-.17Z" fill="rgb(252, 102, 0)"/>
      <path d="M299.46,484.98c-.11-.11-.17-.25-.17-.41v-12.25c0-.15.06-.28.17-.4.11-.12.25-.18.41-.18h10.02c.15,0,.28.06.4.18.12.12.18.25.18.4v1.09c0,.15.06.28.17.39.11.11.25.17.41.17h1.07c.15,0,.28.06.4.18.12.12.18.25.18.4v3.3c0,.15-.06.28-.18.4-.12.12-.25.18-.4.18h-1.07c-.16,0-.3.06-.41.17-.11.12-.17.25-.17.41v3.32c0,.16.06.3.17.41.11.11.25.17.41.17h1.07c.15,0,.28.06.4.17.12.11.18.25.18.41v1.07c0,.16-.06.3-.18.41-.12.11-.25.17-.4.17h-3.31c-.15,0-.28-.06-.39-.17-.11-.11-.17-.25-.17-.41v-1.07c0-.16-.06-.3-.18-.41-.12-.11-.25-.17-.4-.17h-1.08c-.15,0-.28-.06-.4-.17s-.18-.25-.18-.41v-1.07c0-.16-.06-.3-.17-.41-.12-.11-.25-.17-.4-.17h-1.1c-.15,0-.28.06-.41.17-.12.11-.18.25-.18.41v3.3c0,.16-.06.3-.17.41-.11.11-.25.17-.41.17h-3.3c-.16,0-.3-.06-.41-.17ZM307.66,478.43c.15,0,.28-.06.4-.18.12-.12.18-.25.18-.4v-3.3c0-.15-.06-.28-.18-.4-.12-.12-.25-.18-.4-.18h-3.32c-.15,0-.28.06-.4.18-.12.12-.18.25-.18.4v3.32c0,.15.06.28.18.4.12.12.25.18.4.18l3.32-.02Z" fill="rgb(252, 102, 0)"/>
      <path d="M316.7,484.98c-.11-.11-.17-.25-.17-.41v-10.02c0-.15.06-.28.17-.4.11-.12.25-.18.41-.18h1.07c.16,0,.3-.06.41-.17.11-.11.17-.24.17-.39v-1.09c0-.15.06-.28.18-.4.12-.12.25-.18.4-.18h7.79c.15,0,.28.06.4.18.12.12.18.25.18.4v1.09c0,.15.06.28.17.39.11.11.25.17.41.17h1.07c.15,0,.28.06.4.18.12.12.18.25.18.4v10.02c0,.16-.06.3-.18.41-.12.11-.25.17-.4.17h-3.32c-.15,0-.28-.06-.39-.17-.11-.11-.17-.25-.17-.41v-3.3c0-.16-.06-.3-.18-.41-.12-.11-.25-.17-.4-.17h-3.32c-.15,0-.28.06-.4.17-.12.11-.18.25-.18.41v3.3c0,.16-.06.3-.17.41-.11.11-.25.17-.41.17h-3.3c-.16,0-.3-.06-.41-.17ZM324.9,478.45c.15,0,.28-.06.4-.18.12-.12.18-.25.18-.4v-3.32c0-.15-.06-.28-.18-.4-.12-.12-.25-.18-.4-.18h-3.32c-.15,0-.28.06-.4.18-.12.12-.18.25-.18.4v3.32c0,.15.06.28.18.4.12.12.25.18.4.18h3.32Z" fill="rgb(252, 102, 0)"/>
      <path d="M333.94,484.98c-.11-.11-.17-.25-.17-.41v-12.25c0-.15.06-.28.17-.4.11-.12.25-.18.41-.18h3.3c.16,0,.3.06.41.18.11.12.17.25.17.4v10.02c0,.16.06.3.18.41s.25.17.4.17h5.55c.15,0,.28.06.4.17.12.11.18.25.18.41v1.07c0,.16-.06.3-.18.41-.12.11-.25.17-.4.17h-10.02c-.16,0-.3-.06-.41-.17Z" fill="rgb(252, 102, 0)"/>
      <path d="M346.72,484.98c-.11-.11-.17-.25-.17-.41v-1.07c0-.16.06-.3.17-.41.11-.11.25-.17.41-.17h1.07c.16,0,.3-.06.41-.17.11-.11.17-.25.17-.41v-7.79c0-.15-.06-.28-.17-.4-.11-.12-.25-.18-.41-.18h-1.07c-.16,0-.3-.06-.41-.17-.11-.11-.17-.24-.17-.39v-1.09c0-.15.06-.28.17-.4.11-.12.25-.18.41-.18h7.79c.15,0,.28.06.4.18.12.12.18.25.18.4v1.09c0,.15-.06.28-.18.39-.12.11-.25.17-.4.17h-1.09c-.15,0-.28.06-.4.18-.12.12-.18.25-.18.4v7.79c0,.16.06.3.18.41s.25.17.4.17h1.09c.15,0,.28.06.4.17.12.11.18.25.18.41v1.07c0,.16-.06.3-.18.41-.12.11-.25.17-.4.17h-7.79c-.16,0-.3-.06-.41-.17Z" fill="rgb(252, 102, 0)"/>
      <path d="M359.5,484.98c-.11-.11-.17-.25-.17-.41v-3.3c0-.16.06-.3.17-.41.11-.11.25-.17.41-.17h1.07c.16,0,.3-.06.41-.18.11-.12.17-.25.17-.4v-1.07c0-.16.06-.3.18-.41.12-.11.25-.17.4-.17h1.07c.16,0,.3-.06.41-.18.11-.12.17-.25.17-.4v-1.09c0-.15.06-.28.18-.39.12-.11.26-.17.41-.17h1.1c.15,0,.28-.06.4-.18.11-.12.17-.25.17-.4v-1.09c0-.15-.06-.28-.17-.4-.11-.12-.25-.18-.39-.18h-5.57c-.16,0-.3-.06-.41-.17-.11-.11-.17-.24-.17-.39v-1.09c0-.15.06-.28.17-.4.11-.12.25-.18.41-.18h10.02c.15,0,.28.06.4.18.12.12.18.25.18.4v3.32c0,.15-.06.28-.18.4-.12.12-.25.18-.4.18h-1.08c-.15,0-.28.06-.39.17-.11.11-.17.25-.17.39v1.09c0,.15-.06.28-.18.4-.12.12-.25.18-.4.18h-1.08c-.15,0-.28.06-.4.17-.12.11-.18.25-.18.41v1.07c0,.15-.06.28-.17.4-.12.12-.25.18-.4.18h-1.1c-.15,0-.28.06-.41.17-.12.11-.18.25-.18.41v1.07c0,.16.06.3.18.41s.25.17.4.17h5.55c.15,0,.28.06.4.17.12.11.18.25.18.41v1.07c0,.16-.06.3-.18.41-.12.11-.25.17-.4.17h-10.02c-.16,0-.3-.06-.41-.17Z" fill="rgb(252, 102, 0)"/>
      <path d="M374.51,484.98c-.11-.11-.17-.25-.17-.41v-12.25c0-.15.06-.28.17-.4.11-.12.25-.18.41-.18h10.02c.15,0,.28.06.4.18.12.12.18.25.18.4v1.09c0,.15-.06.28-.18.39-.12.11-.25.17-.4.17h-5.55c-.15,0-.28.06-.4.18-.12.12-.18.25-.18.4v1.09c0,.15.06.28.18.4.12.12.25.18.4.18h3.32c.15,0,.28.06.4.17.12.11.18.25.18.39v1.09c0,.15-.06.28-.18.4-.12.12-.25.18-.4.18h-3.32c-.15,0-.28.06-.4.17-.12.11-.18.25-.18.41v3.3c0,.16.06.3.18.41s.25.17.4.17h5.55c.15,0,.28.06.4.17.12.11.18.25.18.41v1.07c0,.16-.06.3-.18.41-.12.11-.25.17-.4.17h-10.02c-.16,0-.3-.06-.41-.17Z" fill="rgb(252, 102, 0)"/>
      <path d="M389.52,484.98c-.11-.11-.17-.25-.17-.41v-12.25c0-.15.06-.28.17-.4.11-.12.25-.18.41-.18h10.02c.15,0,.28.06.4.18.12.12.18.25.18.4v1.09c0,.15.06.28.17.39.11.11.25.17.41.17h1.07c.15,0,.28.06.4.18.12.12.18.25.18.4v7.79c0,.16-.06.3-.18.41-.12.11-.25.17-.4.17h-1.07c-.16,0-.3.06-.41.17-.11.11-.17.25-.17.41v1.07c0,.16-.06.3-.18.41-.12.11-.25.17-.4.17h-10.02c-.16,0-.3-.06-.41-.17ZM397.72,482.92c.15,0,.28-.06.4-.17.12-.11.18-.25.18-.41v-7.79c0-.15-.06-.28-.18-.4-.12-.12-.25-.18-.4-.18h-3.32c-.15,0-.28.06-.4.18-.12.12-.18.25-.18.4v7.79c0,.16.06.3.18.41s.25.17.4.17h3.32Z" fill="rgb(252, 102, 0)"/>
      <path d="M415.06,484.98c-.12-.11-.18-.25-.18-.41v-1.07c0-.16-.06-.3-.17-.41-.11-.11-.25-.17-.41-.17h-1.07c-.16,0-.3-.06-.41-.17s-.17-.25-.17-.41v-7.79c0-.15.06-.28.17-.4.11-.12.25-.18.41-.18h1.07c.16,0,.3-.06.41-.17.11-.11.17-.24.17-.39v-1.09c0-.15.06-.28.18-.4.12-.12.25-.18.4-.18h10.02c.15,0,.28.06.4.18.12.12.18.25.18.4v1.09c0,.15-.06.28-.18.39-.12.11-.25.17-.4.17h-7.79c-.15,0-.28.06-.4.18-.12.12-.18.25-.18.4v7.79c0,.16.06.3.18.41s.25.17.4.17h3.32c.15,0,.28-.06.4-.17.12-.11.18-.25.18-.41v-3.3c0-.16.06-.3.17-.41.11-.11.24-.17.39-.17h3.32c.15,0,.28.06.4.17.12.11.18.25.18.41v5.53c0,.16-.06.3-.18.41-.12.11-.25.17-.4.17h-1.07c-.16,0-.3-.06-.41-.17-.11-.11-.17-.25-.17-.41v-1.07c0-.16-.06-.3-.18-.41-.12-.11-.25-.17-.4-.17h-1.09c-.15,0-.28.06-.39.17-.11.11-.17.25-.17.41v1.07c0,.16-.06.3-.18.41-.12.11-.25.17-.4.17h-5.55c-.15,0-.28-.06-.4-.17Z" fill="rgb(252, 102, 0)"/>
      <path d="M430.06,484.98c-.11-.11-.17-.25-.17-.41v-10.02c0-.15.06-.28.17-.4.11-.12.25-.18.41-.18h1.07c.16,0,.3-.06.41-.17s.17-.24.17-.39v-1.09c0-.15.06-.28.18-.4s.25-.18.4-.18h7.79c.15,0,.28.06.4.18.12.12.18.25.18.4v1.09c0,.15.06.28.17.39.11.11.25.17.41.17h1.07c.15,0,.28.06.4.18.12.12.18.25.18.4v10.02c0,.16-.06.3-.18.41-.12.11-.25.17-.4.17h-3.32c-.15,0-.28-.06-.39-.17-.11-.11-.17-.25-.17-.41v-3.3c0-.16-.06-.3-.18-.41-.12-.11-.25-.17-.4-.17h-3.32c-.15,0-.28.06-.4.17-.12.11-.18.25-.18.41v3.3c0,.16-.06.3-.17.41-.11.11-.25.17-.41.17h-3.3c-.16,0-.3-.06-.41-.17ZM438.26,478.45c.15,0,.28-.06.4-.18s.18-.25.18-.4v-3.32c0-.15-.06-.28-.18-.4-.12-.12-.25-.18-.4-.18h-3.32c-.15,0-.28.06-.4.18s-.18.25-.18.4v3.32c0,.15.06.28.18.4.12.12.25.18.4.18h3.32Z" fill="rgb(252, 102, 0)"/>
      <path d="M447.3,484.98c-.11-.11-.17-.25-.17-.41v-12.25c0-.15.06-.28.17-.4.11-.12.25-.18.41-.18h3.3c.16,0,.3.06.41.18.11.12.17.25.17.4v1.09c0,.15.06.28.18.39.12.11.25.17.4.17h1.08c.15,0,.28.06.39.18.11.12.17.25.17.4v1.08c0,.15.06.28.18.4.12.12.25.18.4.18h1.08c.15,0,.28-.06.4-.18.12-.12.18-.25.18-.4v-1.08c0-.15.06-.28.17-.4.12-.12.25-.18.4-.18h1.1c.15,0,.28-.06.41-.17.12-.11.18-.24.18-.39v-1.09c0-.15.06-.28.17-.4.11-.12.25-.18.41-.18h3.3c.16,0,.3.06.41.18.11.12.17.25.17.4v12.25c0,.16-.06.3-.17.41-.11.11-.25.17-.41.17h-3.3c-.16,0-.3-.06-.41-.17-.11-.11-.17-.25-.17-.41v-7.8c0-.15-.06-.28-.18-.39-.12-.11-.26-.17-.41-.17h-1.1c-.15,0-.28.06-.4.17-.12.11-.17.24-.17.39v3.32c0,.15-.06.28-.18.4s-.25.18-.4.18h-3.3c-.15,0-.28-.06-.4-.18-.12-.12-.18-.25-.18-.4v-1.07c0-.16-.06-.3-.17-.41s-.25-.17-.41-.17h-1.07c-.15,0-.28.06-.4.17-.12.11-.18.25-.18.41v5.55c0,.16-.06.3-.17.41-.11.11-.25.17-.41.17h-1.07c-.16,0-.3-.06-.41-.17Z" fill="rgb(252, 102, 0)"/>
      <path d="M466.78,484.98c-.11-.11-.17-.25-.17-.41v-1.07c0-.16.06-.3.17-.41.11-.11.25-.17.41-.17h1.07c.16,0,.3-.06.41-.17.11-.11.17-.25.17-.41v-7.79c0-.15-.06-.28-.17-.4-.11-.12-.25-.18-.41-.18h-1.07c-.16,0-.3-.06-.41-.17-.11-.11-.17-.24-.17-.39v-1.09c0-.15.06-.28.17-.4.11-.12.25-.18.41-.18h7.79c.15,0,.28.06.4.18.12.12.18.25.18.4v1.09c0,.15-.06.28-.18.39-.12.11-.25.17-.4.17h-1.09c-.15,0-.28.06-.4.18s-.18.25-.18.4v7.79c0,.16.06.3.18.41.12.11.25.17.4.17h1.09c.15,0,.28.06.4.17.12.11.18.25.18.41v1.07c0,.16-.06.3-.18.41-.12.11-.25.17-.4.17h-7.79c-.16,0-.3-.06-.41-.17Z" fill="rgb(252, 102, 0)"/>
      <path d="M479.56,484.98c-.11-.11-.17-.25-.17-.41v-12.25c0-.15.06-.28.17-.4.11-.12.25-.18.41-.18h5.54c.15,0,.28.06.39.18.11.12.17.25.17.4v3.3c0,.15.06.28.18.4.12.12.25.18.4.18h1.08c.15,0,.28.06.4.17.12.12.18.25.18.39v3.33c0,.15.06.28.17.4s.25.18.4.18h1.1c.15,0,.28-.06.41-.18.12-.12.18-.25.18-.4v-7.79c0-.15.06-.28.17-.4.11-.12.25-.18.41-.18h1.07c.15,0,.28.06.4.18.12.12.18.25.18.4v12.25c0,.16-.06.3-.18.41-.12.11-.25.17-.4.17h-5.55c-.15,0-.28-.06-.4-.17-.12-.11-.18-.25-.18-.41v-3.3c0-.16-.06-.3-.17-.41-.11-.11-.25-.17-.39-.17h-1.09c-.15,0-.28-.06-.4-.18-.12-.12-.18-.26-.18-.4v-3.33c0-.15-.06-.28-.17-.39-.11-.11-.25-.17-.41-.17h-1.07c-.15,0-.28.06-.4.17-.12.11-.18.25-.18.39v7.8c0,.16-.06.3-.17.41-.11.11-.25.17-.41.17h-1.07c-.16,0-.3-.06-.41-.17Z" fill="rgb(252, 102, 0)"/>
      <path d="M499.04,484.98c-.12-.11-.18-.25-.18-.41v-1.07c0-.16-.06-.3-.17-.41-.11-.11-.25-.17-.41-.17h-1.07c-.16,0-.3-.06-.41-.17s-.17-.25-.17-.41v-7.79c0-.15.06-.28.17-.4.11-.12.25-.18.41-.18h1.07c.16,0,.3-.06.41-.17s.17-.24.17-.39v-1.09c0-.15.06-.28.18-.4s.25-.18.4-.18h10.02c.15,0,.28.06.4.18.12.12.18.25.18.4v1.09c0,.15-.06.28-.18.39-.12.11-.25.17-.4.17h-7.79c-.15,0-.28.06-.4.18s-.18.25-.18.4v7.79c0,.16.06.3.18.41.12.11.25.17.4.17h3.32c.15,0,.28-.06.4-.17.12-.11.18-.25.18-.41v-3.3c0-.16.06-.3.17-.41s.24-.17.39-.17h3.32c.15,0,.28.06.4.17.12.11.18.25.18.41v5.53c0,.16-.06.3-.18.41-.12.11-.25.17-.4.17h-1.07c-.16,0-.3-.06-.41-.17-.11-.11-.17-.25-.17-.41v-1.07c0-.16-.06-.3-.18-.41-.12-.11-.25-.17-.4-.17h-1.09c-.15,0-.28.06-.39.17s-.17.25-.17.41v1.07c0,.16-.06.3-.18.41-.12.11-.25.17-.4.17h-5.55c-.15,0-.28-.06-.4-.17Z" fill="rgb(252, 102, 0)"/>
      <path d="M522.34,484.98c-.12-.11-.18-.25-.18-.41v-1.07c0-.16-.06-.3-.17-.41-.11-.11-.25-.17-.41-.17h-1.07c-.16,0-.3-.06-.41-.17s-.17-.25-.17-.41v-7.79c0-.15.06-.28.17-.4.11-.12.25-.18.41-.18h1.07c.16,0,.3-.06.41-.17s.17-.24.17-.39v-1.09c0-.15.06-.28.18-.4s.25-.18.4-.18h7.79c.15,0,.28.06.4.18.12.12.18.25.18.4v1.09c0,.15.06.28.17.39.11.11.25.17.41.17h1.07c.15,0,.28.06.4.18.12.12.18.25.18.4v7.79c0,.16-.06.3-.18.41-.12.11-.25.17-.4.17h-1.07c-.16,0-.3.06-.41.17s-.17.25-.17.41v1.07c0,.16-.06.3-.18.41-.12.11-.25.17-.4.17h-7.79c-.15,0-.28-.06-.4-.17ZM528.3,482.92c.15,0,.28-.06.4-.17.12-.11.18-.25.18-.41v-7.79c0-.15-.06-.28-.18-.4-.12-.12-.25-.18-.4-.18h-3.32c-.15,0-.28.06-.4.18s-.18.25-.18.4v7.79c0,.16.06.3.18.41.12.11.25.17.4.17h3.32Z" fill="rgb(252, 102, 0)"/>
      <path d="M537.34,484.98c-.11-.11-.17-.25-.17-.41v-12.25c0-.15.06-.28.17-.4.11-.12.25-.18.41-.18h5.54c.15,0,.28.06.39.18.11.12.17.25.17.4v3.3c0,.15.06.28.18.4.12.12.25.18.4.18h1.08c.15,0,.28.06.4.17.12.12.18.25.18.39v3.33c0,.15.06.28.17.4s.25.18.4.18h1.1c.15,0,.28-.06.41-.18.12-.12.18-.25.18-.4v-7.79c0-.15.06-.28.17-.4.11-.12.25-.18.41-.18h1.07c.15,0,.28.06.4.18.12.12.18.25.18.4v12.25c0,.16-.06.3-.18.41-.12.11-.25.17-.4.17h-5.55c-.15,0-.28-.06-.4-.17-.12-.11-.18-.25-.18-.41v-3.3c0-.16-.06-.3-.17-.41-.11-.11-.25-.17-.39-.17h-1.09c-.15,0-.28-.06-.4-.18-.12-.12-.18-.26-.18-.4v-3.33c0-.15-.06-.28-.17-.39-.11-.11-.25-.17-.41-.17h-1.07c-.15,0-.28.06-.4.17-.12.11-.18.25-.18.39v7.8c0,.16-.06.3-.17.41-.11.11-.25.17-.41.17h-1.07c-.16,0-.3-.06-.41-.17Z" fill="rgb(252, 102, 0)"/>
      <path d="M560.64,484.98c-.11-.11-.17-.25-.17-.41v-12.25c0-.15.06-.28.17-.4.11-.12.25-.18.41-.18h5.54c.15,0,.28.06.39.18.11.12.17.25.17.4v3.3c0,.15.06.28.18.4.12.12.25.18.4.18h1.08c.15,0,.28.06.4.17.12.12.18.25.18.39v3.33c0,.15.06.28.17.4s.25.18.4.18h1.1c.15,0,.28-.06.41-.18.12-.12.18-.25.18-.4v-7.79c0-.15.06-.28.17-.4.11-.12.25-.18.41-.18h1.07c.15,0,.28.06.4.18.12.12.18.25.18.4v12.25c0,.16-.06.3-.18.41-.12.11-.25.17-.4.17h-5.55c-.15,0-.28-.06-.4-.17-.12-.11-.18-.25-.18-.41v-3.3c0-.16-.06-.3-.17-.41-.11-.11-.25-.17-.39-.17h-1.09c-.15,0-.28-.06-.4-.18-.12-.12-.18-.26-.18-.4v-3.33c0-.15-.06-.28-.17-.39-.11-.11-.25-.17-.41-.17h-1.07c-.15,0-.28.06-.4.17-.12.11-.18.25-.18.39v7.8c0,.16-.06.3-.17.41-.11.11-.25.17-.41.17h-1.07c-.16,0-.3-.06-.41-.17Z" fill="rgb(252, 102, 0)"/>
      <path d="M580.13,484.98c-.12-.11-.18-.25-.18-.41v-1.07c0-.16-.06-.3-.17-.41-.11-.11-.25-.17-.41-.17h-1.07c-.16,0-.3-.06-.41-.17s-.17-.25-.17-.41v-7.79c0-.15.06-.28.17-.4.11-.12.25-.18.41-.18h1.07c.16,0,.3-.06.41-.17s.17-.24.17-.39v-1.09c0-.15.06-.28.18-.4s.25-.18.4-.18h7.79c.15,0,.28.06.4.18.12.12.18.25.18.4v1.09c0,.15.06.28.17.39.11.11.25.17.41.17h1.07c.15,0,.28.06.4.18.12.12.18.25.18.4v7.79c0,.16-.06.3-.18.41-.12.11-.25.17-.4.17h-1.07c-.16,0-.3.06-.41.17s-.17.25-.17.41v1.07c0,.16-.06.3-.18.41-.12.11-.25.17-.4.17h-7.79c-.15,0-.28-.06-.4-.17ZM586.09,482.92c.15,0,.28-.06.4-.17.12-.11.18-.25.18-.41v-7.79c0-.15-.06-.28-.18-.4-.12-.12-.25-.18-.4-.18h-3.32c-.15,0-.28.06-.4.18s-.18.25-.18.4v7.79c0,.16.06.3.18.41.12.11.25.17.4.17h3.32Z" fill="rgb(252, 102, 0)"/>
      <path d="M595.13,484.98c-.11-.11-.17-.25-.17-.41v-1.07c0-.16.06-.3.17-.41.12-.11.25-.17.41-.17h5.57c.15,0,.28-.06.39-.17s.17-.25.17-.41v-1.07c0-.16-.06-.3-.17-.41s-.25-.17-.39-.17h-3.33c-.15,0-.28-.06-.4-.18-.12-.12-.18-.26-.18-.4v-1.07c0-.16-.06-.3-.17-.41-.11-.11-.25-.17-.41-.17l-1.07.02c-.16,0-.3-.06-.41-.18-.11-.12-.17-.25-.17-.4v-3.32c0-.15.06-.28.17-.4.11-.12.25-.18.41-.18h1.07c.16,0,.3-.06.41-.17s.17-.24.17-.39v-1.09c0-.15.06-.28.18-.4s.25-.18.4-.18h7.79c.15,0,.28.06.4.18.12.12.18.25.18.4v1.09c0,.15-.06.28-.18.39-.12.11-.25.17-.4.17h-5.55c-.15,0-.28.06-.4.18-.12.12-.18.25-.18.4v1.08c0,.15.06.28.18.4.12.12.25.18.4.18h3.32c.15,0,.28.06.4.17.12.11.18.24.18.39v1.09c0,.15.06.28.17.4.11.12.24.18.39.18h1.09c.15,0,.28.06.4.17.12.12.18.25.18.41v3.32c0,.16-.06.3-.18.41-.12.11-.25.17-.4.17h-1.09c-.15,0-.28.06-.39.17s-.17.25-.17.41v1.07c0,.16-.06.3-.18.41-.12.11-.25.17-.4.17h-7.79c-.16,0-.3-.06-.41-.17Z" fill="rgb(252, 102, 0)"/>
      <path d="M612.38,484.98c-.12-.11-.18-.25-.18-.41v-10.02c0-.15-.06-.28-.17-.4-.11-.12-.25-.18-.41-.18h-3.3c-.16,0-.3-.06-.41-.17-.11-.11-.17-.24-.17-.39v-1.09c0-.15.06-.28.17-.4.11-.12.25-.18.41-.18h12.25c.15,0,.28.06.4.18.12.12.18.25.18.4v1.09c0,.15-.06.28-.18.39-.12.11-.25.17-.4.17h-3.32c-.15,0-.28.06-.4.18s-.18.25-.18.4v10.02c0,.16-.06.3-.17.41-.11.11-.25.17-.39.17h-3.32c-.15,0-.28-.06-.4-.17Z" fill="rgb(252, 102, 0)"/>
      <path d="M622.92,484.98c-.11-.11-.17-.25-.17-.41v-12.25c0-.15.06-.28.17-.4.11-.12.25-.18.41-.18h10.02c.15,0,.28.06.4.18.12.12.18.25.18.4v1.09c0,.15.06.28.17.39.11.11.25.17.41.17h1.07c.15,0,.28.06.4.18.12.12.18.25.18.4v3.3c0,.15-.06.28-.18.4-.12.12-.25.18-.4.18h-1.07c-.16,0-.3.06-.41.17-.11.12-.17.25-.17.41v3.32c0,.16.06.3.17.41.11.11.25.17.41.17h1.07c.15,0,.28.06.4.17.12.11.18.25.18.41v1.07c0,.16-.06.3-.18.41-.12.11-.25.17-.4.17h-3.31c-.15,0-.28-.06-.39-.17s-.17-.25-.17-.41v-1.07c0-.16-.06-.3-.18-.41-.12-.11-.25-.17-.4-.17h-1.08c-.15,0-.28-.06-.4-.17s-.18-.25-.18-.41v-1.07c0-.16-.06-.3-.17-.41-.12-.11-.25-.17-.4-.17h-1.1c-.15,0-.28.06-.41.17-.12.11-.18.25-.18.41v3.3c0,.16-.06.3-.17.41-.11.11-.25.17-.41.17h-3.3c-.16,0-.3-.06-.41-.17ZM631.12,478.43c.15,0,.28-.06.4-.18.12-.12.18-.25.18-.4v-3.3c0-.15-.06-.28-.18-.4-.12-.12-.25-.18-.4-.18h-3.32c-.15,0-.28.06-.4.18s-.18.25-.18.4v3.32c0,.15.06.28.18.4.12.12.25.18.4.18l3.32-.02Z" fill="rgb(252, 102, 0)"/>
    </g>
  </g>
</svg>